<?xml version="1.0" encoding="utf-8"?>
<!-- Generator: Adobe Illustrator 22.0.0, SVG Export Plug-In . SVG Version: 6.00 Build 0)  -->
<svg version="1.1" id="Layer_1" xmlns="http://www.w3.org/2000/svg" xmlns:xlink="http://www.w3.org/1999/xlink" x="0px" y="0px"
	 viewBox="0 0 612 238.1" style="enable-background:new 0 0 612 238.1;" xml:space="preserve">
<style type="text/css">
	.st0{fill:none;stroke:#FFFFFF;stroke-width:0.75;stroke-miterlimit:10;}
</style>
<g>
	<g>
		<g>
			<path class="st0" d="M34.9,10.2c0,0.6-9,27.3-9,27.3l-9-27.3H6.1v50.4h10.8V45.4L22,60.6h7.8l5.1-15.3v15.3h10.8V10.2H34.9z"/>
			<path class="st0" d="M62.7,37.2L62.7,37.2l1.5-5.9l1.5,5.9H62.7z M70.4,10.2H57.5L45.7,60.6h11.7l2.7-12.4h8.3L71,60.6h12.5
				L70.4,10.2z"/>
			<path class="st0" d="M109.5,12.3l-3.3,10.3c0,0-12.1-4.5-14.1,0C92,23.4,91.2,24.4,99,28s15.5,6.5,15.8,19.2s-13,14.5-17.1,14.5
				S81,62.2,79.1,45.9c3.1-0.3,11.2-1.2,11.2-1.2s-0.3,6.5,7.5,6.2c1.3,0,5.4-0.3,5.3-4.8s-3.5-5.6-12.3-9.9s-10.6-7.4-10.4-15
				S91.5,4.7,109.5,12.3"/>
			<path class="st0" d="M141,12.5l-3.2,9.7c0,0-10.3-4.2-12.7,1.1c0.2,6.8,0,25.3,0,25.3s1.6,5.5,15.9,0c0.4,2.9,1.3,10.3,1.3,10.3
				s-6.9,3-13.5,2.8s-14.2-3.7-14.4-11.1c-0.3-7.4,0-28.2,0-28.2s-0.3-12.6,13.9-13C130.6,9.4,135.3,9.4,141,12.5"/>
		</g>
		<g>
			<path class="st0" d="M176.1,10.2c0,0.6-9,27.3-9,27.3l-9-27.3h-10.8v50.4h10.8V45.4l5.1,15.2h7.8l5.1-15.3v15.3h10.8V10.2H176.1z
				"/>
			<path class="st0" d="M203.9,37.2L203.9,37.2l1.5-5.9l1.5,5.9H203.9z M211.6,10.2h-12.9l-11.8,50.4h11.7l2.7-12.4h8.3l2.6,12.4
				h12.5L211.6,10.2z"/>
			<path class="st0" d="M250.7,12.3l-3.3,10.3c0,0-12.1-4.5-14.1,0c-0.1,0.8-0.9,1.8,6.9,5.4s15.5,6.5,15.8,19.2s-13,14.5-17.1,14.5
				c-4.1,0-16.7,0.5-18.6-15.8c3.1-0.3,11.2-1.2,11.2-1.2s-0.3,6.5,7.5,6.2c1.3,0,5.4-0.3,5.3-4.8c-0.1-4.5-3.5-5.6-12.3-9.9
				s-10.6-7.4-10.4-15S232.7,4.7,250.7,12.3"/>
			<path class="st0" d="M282.2,12.5l-3.2,9.7c0,0-10.3-4.2-12.7,1.1c0.2,6.8,0,25.3,0,25.3s1.6,5.5,15.9,0
				c0.4,2.9,1.3,10.3,1.3,10.3s-6.9,3-13.5,2.8s-14.2-3.7-14.4-11.1c-0.3-7.4,0-28.2,0-28.2s-0.3-12.6,13.9-13
				C271.8,9.4,276.5,9.4,282.2,12.5"/>
		</g>
		<g>
			<path class="st0" d="M316.9,10.2c0,0.6-9,27.3-9,27.3l-9-27.3h-10.8v50.4h10.8V45.4l5.1,15.2h7.8l5.1-15.3v15.3h10.8V10.2H316.9z
				"/>
			<path class="st0" d="M344.7,37.2L344.7,37.2l1.5-5.9l1.5,5.9H344.7z M352.4,10.2h-12.9l-11.8,50.4h11.7l2.7-12.4h8.3l2.6,12.4
				h12.5L352.4,10.2z"/>
			<path class="st0" d="M391.5,12.3l-3.3,10.3c0,0-12.1-4.5-14.1,0c-0.1,0.8-0.9,1.8,6.9,5.4c7.8,3.6,15.5,6.5,15.8,19.2
				c0.3,12.7-13,14.5-17.1,14.5s-16.7,0.5-18.6-15.8c3.1-0.3,11.2-1.2,11.2-1.2s-0.3,6.5,7.5,6.2c1.3,0,5.4-0.3,5.3-4.8
				c-0.1-4.5-3.5-5.6-12.3-9.9c-8.8-4.3-10.6-7.4-10.4-15C362.6,13.6,373.5,4.7,391.5,12.3"/>
			<path class="st0" d="M423,12.5l-3.2,9.7c0,0-10.3-4.2-12.7,1.1c0.2,6.8,0,25.3,0,25.3s1.6,5.5,15.9,0c0.4,2.9,1.3,10.3,1.3,10.3
				s-6.9,3-13.5,2.8s-14.2-3.7-14.4-11.1c-0.3-7.4,0-28.2,0-28.2s-0.3-12.6,13.9-13C412.6,9.4,417.3,9.4,423,12.5"/>
		</g>
		<g>
			<path class="st0" d="M458.1,10.2c0,0.6-9,27.3-9,27.3l-9-27.3h-10.8v50.4h10.8V45.4l5.1,15.2h7.8l5.1-15.3v15.3h10.8V10.2H458.1z
				"/>
			<path class="st0" d="M485.9,37.2L485.9,37.2l1.5-5.9l1.5,5.9H485.9z M493.6,10.2h-12.9l-11.8,50.4h11.7l2.7-12.4h8.3l2.6,12.4
				h12.5L493.6,10.2z"/>
			<path class="st0" d="M532.7,12.3l-3.3,10.3c0,0-12.1-4.5-14.1,0c-0.1,0.8-0.9,1.8,6.9,5.4c7.8,3.6,15.5,6.5,15.8,19.2
				s-13,14.5-17.1,14.5c-4.1,0-16.7,0.5-18.6-15.8c3.1-0.3,11.2-1.2,11.2-1.2s-0.3,6.5,7.5,6.2c1.3,0,5.4-0.3,5.3-4.8
				s-3.5-5.6-12.3-9.9c-8.8-4.3-10.6-7.4-10.4-15C503.8,13.6,514.7,4.7,532.7,12.3"/>
			<path class="st0" d="M564.2,12.5l-3.2,9.7c0,0-10.3-4.2-12.7,1.1c0.2,6.8,0,25.3,0,25.3s1.6,5.5,15.9,0
				c0.4,2.9,1.3,10.3,1.3,10.3s-6.9,3-13.5,2.8c-6.6-0.2-14.2-3.7-14.4-11.1c-0.3-7.4,0-28.2,0-28.2s-0.3-12.6,13.9-13
				C553.8,9.4,558.5,9.4,564.2,12.5"/>
		</g>
	</g>
	<g>
		<g>
			<path class="st0" d="M74.5,67.7c0,0.6-9,27.3-9,27.3l-9-27.3H45.7v50.4h10.8v-15.2l5.1,15.2h7.8l5.1-15.3v15.3h10.8V67.7H74.5z"
				/>
			<path class="st0" d="M102.3,94.7L102.3,94.7l1.5-5.9l1.5,5.9H102.3z M110,67.7H97.1l-11.8,50.4H97l2.7-12.4h8.3l2.6,12.4h12.5
				L110,67.7z"/>
			<path class="st0" d="M149.1,69.8l-3.3,10.3c0,0-12.1-4.5-14.1,0c-0.1,0.8-0.9,1.8,6.9,5.4s15.5,6.5,15.8,19.2s-13,14.5-17.1,14.5
				c-4.1,0-16.7,0.5-18.6-15.8c3.1-0.3,11.2-1.2,11.2-1.2s-0.3,6.5,7.5,6.2c1.3,0,5.4-0.3,5.3-4.8c-0.1-4.5-3.5-5.6-12.3-9.9
				s-10.6-7.4-10.4-15C120.2,71.1,131.1,62.2,149.1,69.8"/>
			<path class="st0" d="M180.6,70l-3.2,9.7c0,0-10.3-4.2-12.7,1.1c0.2,6.8,0,25.3,0,25.3s1.6,5.5,15.9,0c0.4,2.9,1.3,10.3,1.3,10.3
				s-6.9,3-13.5,2.8c-6.6-0.2-14.2-3.7-14.4-11.1c-0.3-7.4,0-28.2,0-28.2s-0.3-12.6,13.9-13C170.2,66.9,174.9,66.9,180.6,70"/>
		</g>
		<g>
			<path class="st0" d="M215.7,67.7c0,0.6-9,27.3-9,27.3l-9-27.3h-10.8v50.4h10.8v-15.2l5.1,15.2h7.8l5.1-15.3v15.3h10.8V67.7H215.7
				z"/>
			<path class="st0" d="M243.5,94.7L243.5,94.7l1.5-5.9l1.5,5.9H243.5z M251.2,67.7h-12.9l-11.8,50.4h11.7l2.7-12.4h8.3l2.6,12.4
				h12.5L251.2,67.7z"/>
			<path class="st0" d="M290.3,69.8L287,80.1c0,0-12.1-4.5-14.1,0c-0.1,0.8-0.9,1.8,6.9,5.4c7.8,3.6,15.5,6.5,15.8,19.2
				c0.3,12.7-13,14.5-17.1,14.5c-4.1,0-16.7,0.5-18.6-15.8c3.1-0.3,11.2-1.2,11.2-1.2s-0.3,6.5,7.5,6.2c1.3,0,5.4-0.3,5.3-4.8
				c-0.1-4.5-3.5-5.6-12.3-9.9c-8.8-4.3-10.6-7.4-10.4-15C261.4,71.1,272.3,62.2,290.3,69.8"/>
			<path class="st0" d="M321.8,70l-3.2,9.7c0,0-10.3-4.2-12.7,1.1c0.2,6.8,0,25.3,0,25.3s1.6,5.5,15.9,0c0.4,2.9,1.3,10.3,1.3,10.3
				s-6.9,3-13.5,2.8c-6.6-0.2-14.2-3.7-14.4-11.1c-0.3-7.4,0-28.2,0-28.2s-0.3-12.6,13.9-13C311.4,66.9,316.1,66.9,321.8,70"/>
		</g>
		<g>
			<path class="st0" d="M356.5,67.7c0,0.6-9,27.3-9,27.3l-9-27.3h-10.8v50.4h10.8v-15.2l5.1,15.2h7.8l5.1-15.3v15.3h10.8V67.7H356.5
				z"/>
			<path class="st0" d="M384.3,94.7L384.3,94.7l1.5-5.9l1.5,5.9H384.3z M392,67.7h-12.9l-11.8,50.4H379l2.7-12.4h8.3l2.6,12.4h12.5
				L392,67.7z"/>
			<path class="st0" d="M431.1,69.8l-3.3,10.3c0,0-12.1-4.5-14.1,0c-0.1,0.8-0.9,1.8,6.9,5.4c7.8,3.6,15.5,6.5,15.8,19.2
				c0.3,12.7-13,14.5-17.1,14.5s-16.7,0.5-18.6-15.8c3.1-0.3,11.2-1.2,11.2-1.2s-0.3,6.5,7.5,6.2c1.3,0,5.4-0.3,5.3-4.8
				s-3.5-5.6-12.3-9.9c-8.8-4.3-10.6-7.4-10.4-15C402.2,71.1,413.1,62.2,431.1,69.8"/>
			<path class="st0" d="M462.6,70l-3.2,9.7c0,0-10.3-4.2-12.7,1.1c0.2,6.8,0,25.3,0,25.3s1.6,5.5,15.9,0c0.4,2.9,1.3,10.3,1.3,10.3
				s-6.9,3-13.5,2.8c-6.6-0.2-14.2-3.7-14.4-11.1c-0.3-7.4,0-28.2,0-28.2s-0.3-12.6,13.9-13C452.2,66.9,456.9,66.9,462.6,70"/>
		</g>
		<g>
			<path class="st0" d="M497.7,67.7c0,0.6-9,27.3-9,27.3l-9-27.3h-10.8v50.4h10.8v-15.2l5.1,15.2h7.8l5.1-15.3v15.3h10.8V67.7H497.7
				z"/>
			<path class="st0" d="M525.5,94.7L525.5,94.7l1.5-5.9l1.5,5.9H525.5z M533.2,67.7h-12.9l-11.8,50.4h11.7l2.7-12.4h8.3l2.6,12.4
				h12.5L533.2,67.7z"/>
			<path class="st0" d="M572.3,69.8L569,80.1c0,0-12.1-4.5-14.1,0c-0.1,0.8-0.9,1.8,6.9,5.4s15.5,6.5,15.8,19.2s-13,14.5-17.1,14.5
				c-4.1,0-16.7,0.5-18.6-15.8c3.1-0.3,11.2-1.2,11.2-1.2s-0.3,6.5,7.5,6.2c1.3,0,5.4-0.3,5.3-4.8c-0.1-4.5-3.5-5.6-12.3-9.9
				s-10.6-7.4-10.4-15C543.4,71.1,554.3,62.2,572.3,69.8"/>
			<path class="st0" d="M603.8,70l-3.2,9.7c0,0-10.3-4.2-12.7,1.1c0.2,6.8,0,25.3,0,25.3s1.6,5.5,15.9,0c0.4,2.9,1.3,10.3,1.3,10.3
				s-6.9,3-13.5,2.8c-6.6-0.2-14.2-3.7-14.4-11.1c-0.3-7.4,0-28.2,0-28.2s-0.3-12.6,13.9-13C593.4,66.9,598.1,66.9,603.8,70"/>
		</g>
	</g>
	<g>
		<g>
			<path class="st0" d="M34.9,122.8c0,0.6-9,27.3-9,27.3l-9-27.3H6.1v50.4h10.8V158l5.1,15.2h7.8l5.1-15.3v15.3h10.8v-50.4H34.9z"/>
			<path class="st0" d="M62.7,149.8L62.7,149.8l1.5-5.9l1.5,5.9H62.7z M70.4,122.8H57.5l-11.8,50.4h11.7l2.7-12.4h8.3l2.6,12.4h12.5
				L70.4,122.8z"/>
			<path class="st0" d="M109.5,124.9l-3.3,10.3c0,0-12.1-4.5-14.1,0c-0.1,0.8-0.9,1.8,6.9,5.4c7.8,3.6,15.5,6.5,15.8,19.2
				c0.3,12.7-13,14.5-17.1,14.5s-16.7,0.5-18.6-15.8c3.1-0.3,11.2-1.2,11.2-1.2s-0.3,6.5,7.5,6.2c1.3,0,5.4-0.3,5.3-4.8
				s-3.5-5.6-12.3-9.9s-10.6-7.4-10.4-15C80.6,126.2,91.5,117.3,109.5,124.9"/>
			<path class="st0" d="M141,125.1l-3.2,9.7c0,0-10.3-4.2-12.7,1.1c0.2,6.8,0,25.3,0,25.3s1.6,5.5,15.9,0c0.4,2.9,1.3,10.3,1.3,10.3
				s-6.9,3-13.5,2.8c-6.6-0.2-14.2-3.7-14.4-11.1c-0.3-7.4,0-28.2,0-28.2s-0.3-12.6,13.9-13C130.6,122,135.3,122,141,125.1"/>
		</g>
		<g>
			<path class="st0" d="M176.1,122.8c0,0.6-9,27.3-9,27.3l-9-27.3h-10.8v50.4h10.8V158l5.1,15.2h7.8l5.1-15.3v15.3h10.8v-50.4H176.1
				z"/>
			<path class="st0" d="M203.9,149.8L203.9,149.8l1.5-5.9l1.5,5.9H203.9z M211.6,122.8h-12.9l-11.8,50.4h11.7l2.7-12.4h8.3l2.6,12.4
				h12.5L211.6,122.8z"/>
			<path class="st0" d="M250.7,124.9l-3.3,10.3c0,0-12.1-4.5-14.1,0c-0.1,0.8-0.9,1.8,6.9,5.4c7.8,3.6,15.5,6.5,15.8,19.2
				c0.3,12.7-13,14.5-17.1,14.5c-4.1,0-16.7,0.5-18.6-15.8c3.1-0.3,11.2-1.2,11.2-1.2s-0.3,6.5,7.5,6.2c1.3,0,5.4-0.3,5.3-4.8
				c-0.1-4.5-3.5-5.6-12.3-9.9s-10.6-7.4-10.4-15C221.8,126.2,232.7,117.3,250.7,124.9"/>
			<path class="st0" d="M282.2,125.1l-3.2,9.7c0,0-10.3-4.2-12.7,1.1c0.2,6.8,0,25.3,0,25.3s1.6,5.5,15.9,0
				c0.4,2.9,1.3,10.3,1.3,10.3s-6.9,3-13.5,2.8c-6.6-0.2-14.2-3.7-14.4-11.1c-0.3-7.4,0-28.2,0-28.2s-0.3-12.6,13.9-13
				C271.8,122,276.5,122,282.2,125.1"/>
		</g>
		<g>
			<path class="st0" d="M316.9,122.8c0,0.6-9,27.3-9,27.3l-9-27.3h-10.8v50.4h10.8V158l5.1,15.2h7.8l5.1-15.3v15.3h10.8v-50.4H316.9
				z"/>
			<path class="st0" d="M344.7,149.8L344.7,149.8l1.5-5.9l1.5,5.9H344.7z M352.4,122.8h-12.9l-11.8,50.4h11.7l2.7-12.4h8.3l2.6,12.4
				h12.5L352.4,122.8z"/>
			<path class="st0" d="M391.5,124.9l-3.3,10.3c0,0-12.1-4.5-14.1,0c-0.1,0.8-0.9,1.8,6.9,5.4c7.8,3.6,15.5,6.5,15.8,19.2
				c0.3,12.7-13,14.5-17.1,14.5s-16.7,0.5-18.6-15.8c3.1-0.3,11.2-1.2,11.2-1.2s-0.3,6.5,7.5,6.2c1.3,0,5.4-0.3,5.3-4.8
				c-0.1-4.5-3.5-5.6-12.3-9.9c-8.8-4.3-10.6-7.4-10.4-15C362.6,126.2,373.5,117.3,391.5,124.9"/>
			<path class="st0" d="M423,125.1l-3.2,9.7c0,0-10.3-4.2-12.7,1.1c0.2,6.8,0,25.3,0,25.3s1.6,5.5,15.9,0c0.4,2.9,1.3,10.3,1.3,10.3
				s-6.9,3-13.5,2.8c-6.6-0.2-14.2-3.7-14.4-11.1c-0.3-7.4,0-28.2,0-28.2s-0.3-12.6,13.9-13C412.6,122,417.3,122,423,125.1"/>
		</g>
		<g>
			<path class="st0" d="M458.1,122.8c0,0.6-9,27.3-9,27.3l-9-27.3h-10.8v50.4h10.8V158l5.1,15.2h7.8l5.1-15.3v15.3h10.8v-50.4H458.1
				z"/>
			<path class="st0" d="M485.9,149.8L485.9,149.8l1.5-5.9l1.5,5.9H485.9z M493.6,122.8h-12.9l-11.8,50.4h11.7l2.7-12.4h8.3l2.6,12.4
				h12.5L493.6,122.8z"/>
			<path class="st0" d="M532.7,124.9l-3.3,10.3c0,0-12.1-4.5-14.1,0c-0.1,0.8-0.9,1.8,6.9,5.4c7.8,3.6,15.5,6.5,15.8,19.2
				c0.3,12.7-13,14.5-17.1,14.5c-4.1,0-16.7,0.5-18.6-15.8c3.1-0.3,11.2-1.2,11.2-1.2s-0.3,6.5,7.5,6.2c1.3,0,5.4-0.3,5.3-4.8
				s-3.5-5.6-12.3-9.9c-8.8-4.3-10.6-7.4-10.4-15C503.8,126.2,514.7,117.3,532.7,124.9"/>
			<path class="st0" d="M564.2,125.1l-3.2,9.7c0,0-10.3-4.2-12.7,1.1c0.2,6.8,0,25.3,0,25.3s1.6,5.5,15.9,0
				c0.4,2.9,1.3,10.3,1.3,10.3s-6.9,3-13.5,2.8c-6.6-0.2-14.2-3.7-14.4-11.1c-0.3-7.4,0-28.2,0-28.2s-0.3-12.6,13.9-13
				C553.8,122,558.5,122,564.2,125.1"/>
		</g>
	</g>
	<g>
		<g>
			<path class="st0" d="M72.2,178.9c0,0.6-9,27.3-9,27.3l-9-27.3H43.4v50.4h10.8v-15.2l5.1,15.2h7.8l5.1-15.3v15.3H83v-50.4H72.2z"
				/>
			<path class="st0" d="M100,205.9L100,205.9l1.5-5.9l1.5,5.9H100z M107.7,178.9H94.8L83,229.3h11.7l2.7-12.4h8.3l2.6,12.4h12.5
				L107.7,178.9z"/>
			<path class="st0" d="M146.8,181l-3.3,10.3c0,0-12.1-4.5-14.1,0c-0.1,0.8-0.9,1.8,6.9,5.4s15.5,6.5,15.8,19.2
				c0.3,12.7-13,14.5-17.1,14.5c-4.1,0-16.7,0.5-18.6-15.8c3.1-0.3,11.2-1.2,11.2-1.2s-0.3,6.5,7.5,6.2c1.3,0,5.4-0.3,5.3-4.8
				c-0.1-4.5-3.5-5.6-12.3-9.9c-8.8-4.3-10.6-7.4-10.4-15C117.9,182.3,128.8,173.4,146.8,181"/>
			<path class="st0" d="M178.3,181.2l-3.2,9.7c0,0-10.3-4.2-12.7,1.1c0.2,6.8,0,25.3,0,25.3s1.6,5.5,15.9,0
				c0.4,2.9,1.3,10.3,1.3,10.3s-6.9,3-13.5,2.8c-6.6-0.2-14.2-3.7-14.4-11.1c-0.3-7.4,0-28.2,0-28.2s-0.3-12.6,13.9-13
				C167.9,178.1,172.6,178.1,178.3,181.2"/>
		</g>
		<g>
			<path class="st0" d="M213.4,178.9c0,0.6-9,27.3-9,27.3l-9-27.3h-10.8v50.4h10.8v-15.2l5.1,15.2h7.8l5.1-15.3v15.3h10.8v-50.4
				H213.4z"/>
			<path class="st0" d="M241.2,205.9L241.2,205.9l1.5-5.9l1.5,5.9H241.2z M248.9,178.9H236l-11.8,50.4h11.7l2.7-12.4h8.3l2.6,12.4
				H262L248.9,178.9z"/>
			<path class="st0" d="M288,181l-3.3,10.3c0,0-12.1-4.5-14.1,0c-0.1,0.8-0.9,1.8,6.9,5.4c7.8,3.6,15.5,6.5,15.8,19.2
				c0.3,12.7-13,14.5-17.1,14.5s-16.7,0.5-18.6-15.8c3.1-0.3,11.2-1.2,11.2-1.2s-0.3,6.5,7.5,6.2c1.3,0,5.4-0.3,5.3-4.8
				c-0.1-4.5-3.5-5.6-12.3-9.9c-8.8-4.3-10.6-7.4-10.4-15C259.1,182.3,270,173.4,288,181"/>
			<path class="st0" d="M319.5,181.2l-3.2,9.7c0,0-10.3-4.2-12.7,1.1c0.2,6.8,0,25.3,0,25.3s1.6,5.5,15.9,0
				c0.4,2.9,1.3,10.3,1.3,10.3s-6.9,3-13.5,2.8s-14.2-3.7-14.4-11.1c-0.3-7.4,0-28.2,0-28.2s-0.3-12.6,13.9-13
				C309.1,178.1,313.8,178.1,319.5,181.2"/>
		</g>
		<g>
			<path class="st0" d="M354.2,178.9c0,0.6-9,27.3-9,27.3l-9-27.3h-10.8v50.4h10.8v-15.2l5.1,15.2h7.8l5.1-15.3v15.3H365v-50.4
				H354.2z"/>
			<path class="st0" d="M382,205.9L382,205.9l1.5-5.9l1.5,5.9H382z M389.7,178.9h-12.9L365,229.3h11.7l2.7-12.4h8.3l2.6,12.4h12.5
				L389.7,178.9z"/>
			<path class="st0" d="M428.8,181l-3.3,10.3c0,0-12.1-4.5-14.1,0c-0.1,0.8-0.9,1.8,6.9,5.4c7.8,3.6,15.5,6.5,15.8,19.2
				c0.3,12.7-13,14.5-17.1,14.5c-4.1,0-16.7,0.5-18.6-15.8c3.1-0.3,11.2-1.2,11.2-1.2s-0.3,6.5,7.5,6.2c1.3,0,5.4-0.3,5.3-4.8
				c-0.1-4.5-3.5-5.6-12.3-9.9c-8.8-4.3-10.6-7.4-10.4-15C399.9,182.3,410.8,173.4,428.8,181"/>
			<path class="st0" d="M460.3,181.2l-3.2,9.7c0,0-10.3-4.2-12.7,1.1c0.2,6.8,0,25.3,0,25.3s1.6,5.5,15.9,0
				c0.4,2.9,1.3,10.3,1.3,10.3s-6.9,3-13.5,2.8s-14.2-3.7-14.4-11.1c-0.3-7.4,0-28.2,0-28.2s-0.3-12.6,13.9-13
				C449.9,178.1,454.6,178.1,460.3,181.2"/>
		</g>
		<g>
			<path class="st0" d="M495.4,178.9c0,0.6-9,27.3-9,27.3l-9-27.3h-10.8v50.4h10.8v-15.2l5.1,15.2h7.8l5.1-15.3v15.3h10.8v-50.4
				H495.4z"/>
			<path class="st0" d="M523.2,205.9L523.2,205.9l1.5-5.9l1.5,5.9H523.2z M530.9,178.9H518l-11.8,50.4h11.7l2.7-12.4h8.3l2.6,12.4
				H544L530.9,178.9z"/>
			<path class="st0" d="M570,181l-3.3,10.3c0,0-12.1-4.5-14.1,0c-0.1,0.8-0.9,1.8,6.9,5.4c7.8,3.6,15.5,6.5,15.8,19.2
				c0.3,12.7-13,14.5-17.1,14.5c-4.1,0-16.7,0.5-18.6-15.8c3.1-0.3,11.2-1.2,11.2-1.2s-0.3,6.5,7.5,6.2c1.3,0,5.4-0.3,5.3-4.8
				c-0.1-4.5-3.5-5.6-12.3-9.9c-8.8-4.3-10.6-7.4-10.4-15C541.1,182.3,552,173.4,570,181"/>
			<path class="st0" d="M601.5,181.2l-3.2,9.7c0,0-10.3-4.2-12.7,1.1c0.2,6.8,0,25.3,0,25.3s1.6,5.5,15.9,0
				c0.4,2.9,1.3,10.3,1.3,10.3s-6.9,3-13.5,2.8s-14.2-3.7-14.4-11.1c-0.3-7.4,0-28.2,0-28.2s-0.3-12.6,13.9-13
				C591.1,178.1,595.8,178.1,601.5,181.2"/>
		</g>
	</g>
</g>
</svg>
