<?xml version="1.0" encoding="utf-8"?>
<!-- Generator: Adobe Illustrator 22.0.0, SVG Export Plug-In . SVG Version: 6.00 Build 0)  -->
<svg version="1.1" id="Layer_1" xmlns="http://www.w3.org/2000/svg" xmlns:xlink="http://www.w3.org/1999/xlink" x="0px" y="0px"
	 viewBox="0 0 285.4 223.8" style="enable-background:new 0 0 285.4 223.8;" xml:space="preserve">
<style type="text/css">
	.st0{fill:none;stroke:#FFFFFF;stroke-miterlimit:10;}
	.st1{fill:#FFFFFF;}
</style>
<g>
	<g>
		<path class="st0" d="M33.9,4.4c0,0.6-9,27.3-9,27.3l-9-27.3H5.1v50.4h10.8V39.6L21,54.8h7.8l5.1-15.3v15.3h10.8V4.4H33.9z"/>
		<path class="st0" d="M140,42.8c-14.3,5.5-15.9,0-15.9,0s0.2-18.5,0-25.3c2.4-5.3,12.7-1.1,12.7-1.1l3.2-9.7
			c-5.7-3.1-10.4-3.1-12.7-3.1c-14.2,0.4-13.9,13-13.9,13s-0.2,11.2-0.1,20.1c-1.9-8.8-8.5-11.4-15.3-14.5c-7.8-3.6-7-4.6-6.9-5.4
			c2-4.5,14.1,0,14.1,0l3.3-10.3c-18-7.6-28.9,1.3-29.1,8.9c-0.2,7.6,1.6,10.7,10.4,15c8.8,4.3,12.2,5.4,12.3,9.9
			c0.1,4.5-4,4.8-5.3,4.8c-7.8,0.3-7.5-6.2-7.5-6.2s-7.2,0.8-10.6,1.1L69.4,4.4H56.5L44.7,54.8h11.7l2.7-12.4h8.3L70,54.8h12.5
			L81,49.1c4.5,7.1,12.6,6.8,15.7,6.8c3.7,0,14.6-1.4,16.7-10.7c0.4,7.1,7.9,10.5,14.4,10.7c6.6,0.2,13.5-2.8,13.5-2.8
			S140.4,45.7,140,42.8z M61.7,31.4l1.5-5.9l1.5,5.9H61.7z"/>
	</g>
	<g>
		<path class="st0" d="M172.7,4.4c0,0.6-9,27.3-9,27.3l-9-27.3h-10.8v50.4h10.8V39.6l5.1,15.2h7.8l5.1-15.3v15.3h10.8V4.4H172.7z"/>
		<path class="st0" d="M278.8,42.8c-14.3,5.5-15.9,0-15.9,0s0.2-18.5,0-25.3c2.4-5.3,12.7-1.1,12.7-1.1l3.2-9.7
			c-5.7-3.1-10.4-3.1-12.7-3.1c-14.2,0.4-13.9,13-13.9,13s-0.2,11.2-0.1,20.1c-1.9-8.8-8.5-11.4-15.3-14.5c-7.8-3.6-7-4.6-6.9-5.4
			c2-4.5,14.1,0,14.1,0l3.3-10.3c-18-7.6-28.9,1.3-29.1,8.9c-0.2,7.6,1.6,10.7,10.4,15c8.8,4.3,12.2,5.4,12.3,9.9
			c0.1,4.5-4,4.8-5.3,4.8c-7.8,0.3-7.5-6.2-7.5-6.2s-7.2,0.8-10.6,1.1l-9.3-35.6h-12.9l-11.8,50.4h11.7l2.7-12.4h8.3l2.6,12.4h12.5
			l-1.5-5.7c4.5,7.1,12.6,6.8,15.7,6.8c3.7,0,14.6-1.4,16.7-10.7c0.4,7.1,7.9,10.5,14.4,10.7c6.6,0.2,13.5-2.8,13.5-2.8
			S279.2,45.7,278.8,42.8z M200.5,31.4l1.5-5.9l1.5,5.9H200.5z"/>
	</g>
	<g>
		<path class="st1" d="M32.6,59.3c0,0.6-9,27.3-9,27.3l-9-27.3H3.8v50.4h10.8V94.5l5.1,15.2h7.8l5.1-15.3v15.3h10.8V59.3H32.6z"/>
		<path class="st1" d="M138.7,97.7c-14.3,5.5-15.9,0-15.9,0s0.2-18.5,0-25.3c2.4-5.3,12.7-1.1,12.7-1.1l3.2-9.7
			c-5.7-3.1-10.4-3.1-12.7-3.1c-14.2,0.4-13.9,13-13.9,13s-0.2,11.2-0.1,20.1c-1.9-8.8-8.5-11.4-15.3-14.5c-7.8-3.6-7-4.6-6.9-5.4
			c2-4.5,14.1,0,14.1,0l3.3-10.3c-18-7.6-28.9,1.3-29.1,8.9c-0.2,7.6,1.6,10.7,10.4,15c8.8,4.3,12.2,5.4,12.3,9.9
			c0.1,4.5-4,4.8-5.3,4.8c-7.8,0.3-7.5-6.2-7.5-6.2s-7.2,0.8-10.6,1.1l-9.3-35.6H55.2l-11.8,50.4h11.7l2.7-12.4h8.3l2.6,12.4h12.5
			l-1.5-5.7c4.5,7.1,12.6,6.8,15.7,6.8c3.7,0,14.6-1.4,16.7-10.7c0.4,7.1,7.9,10.5,14.4,10.7c6.6,0.2,13.5-2.8,13.5-2.8
			S139.1,100.6,138.7,97.7z M60.4,86.3l1.5-5.9l1.5,5.9H60.4z"/>
	</g>
	<g>
		<path class="st0" d="M171.4,59.3c0,0.6-9,27.3-9,27.3l-9-27.3h-10.8v50.4h10.8V94.5l5.1,15.2h7.8l5.1-15.3v15.3h10.8V59.3H171.4z"
			/>
		<path class="st0" d="M277.5,97.7c-14.3,5.5-15.9,0-15.9,0s0.2-18.5,0-25.3c2.4-5.3,12.7-1.1,12.7-1.1l3.2-9.7
			c-5.7-3.1-10.4-3.1-12.7-3.1c-14.2,0.4-13.9,13-13.9,13s-0.2,11.2-0.1,20.1c-1.9-8.8-8.5-11.4-15.3-14.5c-7.8-3.6-7-4.6-6.9-5.4
			c2-4.5,14.1,0,14.1,0l3.3-10.3c-18-7.6-28.9,1.3-29.1,8.9c-0.2,7.6,1.6,10.7,10.4,15c8.8,4.3,12.2,5.4,12.3,9.9
			c0.1,4.5-4,4.8-5.3,4.8c-7.8,0.3-7.5-6.2-7.5-6.2s-7.2,0.8-10.6,1.1l-9.3-35.6H194l-11.8,50.4h11.7l2.7-12.4h8.3l2.6,12.4H220
			l-1.5-5.7c4.5,7.1,12.6,6.8,15.7,6.8c3.7,0,14.6-1.4,16.7-10.7c0.4,7.1,7.9,10.5,14.4,10.7c6.6,0.2,13.5-2.8,13.5-2.8
			S277.9,100.6,277.5,97.7z M199.2,86.3l1.5-5.9l1.5,5.9H199.2z"/>
	</g>
	<g>
		<path class="st0" d="M33.6,114.6c0,0.6-9,27.3-9,27.3l-9-27.3H4.7V165h10.8v-15.2l5.1,15.2h7.8l5.1-15.3V165h10.8v-50.4H33.6z"/>
		<path class="st0" d="M139.6,153c-14.3,5.5-15.9,0-15.9,0s0.2-18.5,0-25.3c2.4-5.3,12.7-1.1,12.7-1.1l3.2-9.7
			c-5.7-3.1-10.4-3.1-12.7-3.1c-14.2,0.4-13.9,13-13.9,13s-0.2,11.2-0.1,20.1c-1.9-8.8-8.5-11.4-15.3-14.5c-7.8-3.6-7-4.6-6.9-5.4
			c2-4.5,14.1,0,14.1,0l3.3-10.3c-18-7.6-28.9,1.3-29.1,8.9c-0.2,7.6,1.6,10.7,10.4,15c8.8,4.3,12.2,5.4,12.3,9.9
			c0.1,4.5-4,4.8-5.3,4.8c-7.8,0.3-7.5-6.2-7.5-6.2s-7.2,0.8-10.6,1.1l-9.3-35.6H56.1L44.4,165h11.7l2.7-12.4h8.3l2.6,12.4h12.5
			l-1.5-5.7c4.5,7.1,12.6,6.8,15.7,6.8c3.7,0,14.6-1.4,16.7-10.7c0.4,7.1,7.9,10.5,14.4,10.7c6.6,0.2,13.5-2.8,13.5-2.8
			S140.1,155.9,139.6,153z M61.4,141.6l1.5-5.9l1.5,5.9H61.4z"/>
	</g>
	<g>
		<path class="st0" d="M172.4,114.6c0,0.6-9,27.3-9,27.3l-9-27.3h-10.8V165h10.8v-15.2l5.1,15.2h7.8l5.1-15.3V165h10.8v-50.4H172.4z
			"/>
		<path class="st0" d="M278.4,153c-14.3,5.5-15.9,0-15.9,0s0.2-18.5,0-25.3c2.4-5.3,12.7-1.1,12.7-1.1l3.2-9.7
			c-5.7-3.1-10.4-3.1-12.7-3.1c-14.2,0.4-13.9,13-13.9,13s-0.2,11.2-0.1,20.1c-1.9-8.8-8.5-11.4-15.3-14.5c-7.8-3.6-7-4.6-6.9-5.4
			c2-4.5,14.1,0,14.1,0l3.3-10.3c-18-7.6-28.9,1.3-29.1,8.9c-0.2,7.6,1.6,10.7,10.4,15c8.8,4.3,12.2,5.4,12.3,9.9
			c0.1,4.5-4,4.8-5.3,4.8c-7.8,0.3-7.5-6.2-7.5-6.2s-7.2,0.8-10.6,1.1l-9.3-35.6h-12.9L183.1,165h11.7l2.7-12.4h8.3l2.6,12.4h12.5
			l-1.5-5.7c4.5,7.1,12.6,6.8,15.7,6.8c3.7,0,14.6-1.4,16.7-10.7c0.4,7.1,7.9,10.5,14.4,10.7c6.6,0.2,13.5-2.8,13.5-2.8
			S278.9,155.9,278.4,153z M200.1,141.6l1.5-5.9l1.5,5.9H200.1z"/>
	</g>
	<g>
		<path class="st0" d="M32.3,169.5c0,0.6-9,27.3-9,27.3l-9-27.3H3.4v50.4h10.8v-15.2l5.1,15.2h7.8l5.1-15.3v15.3h10.8v-50.4H32.3z"
			/>
		<path class="st0" d="M138.4,207.9c-14.3,5.5-15.9,0-15.9,0s0.2-18.5,0-25.3c2.4-5.3,12.7-1.1,12.7-1.1l3.2-9.7
			c-5.7-3.1-10.4-3.1-12.7-3.1c-14.2,0.4-13.9,13-13.9,13s-0.2,11.2-0.1,20.1c-1.9-8.8-8.5-11.4-15.3-14.5c-7.8-3.6-7-4.6-6.9-5.4
			c2-4.5,14.1,0,14.1,0l3.3-10.3c-18-7.6-28.9,1.3-29.1,8.9c-0.2,7.6,1.6,10.7,10.4,15c8.8,4.3,12.2,5.4,12.3,9.9
			c0.1,4.5-4,4.8-5.3,4.8c-7.8,0.3-7.5-6.2-7.5-6.2s-7.2,0.8-10.6,1.1l-9.3-35.6H54.9l-11.8,50.4h11.7l2.7-12.4h8.3l2.6,12.4h12.5
			l-1.5-5.7c4.5,7.1,12.6,6.8,15.7,6.8c3.7,0,14.6-1.4,16.7-10.7c0.4,7.1,7.9,10.5,14.4,10.7c6.6,0.2,13.5-2.8,13.5-2.8
			S138.8,210.8,138.4,207.9z M60.1,196.5l1.5-5.9l1.5,5.9H60.1z"/>
	</g>
	<g>
		<path class="st0" d="M171.1,169.5c0,0.6-9,27.3-9,27.3l-9-27.3h-10.8v50.4h10.8v-15.2l5.1,15.2h7.8l5.1-15.3v15.3h10.8v-50.4
			H171.1z"/>
		<path class="st0" d="M277.1,207.9c-14.3,5.5-15.9,0-15.9,0s0.2-18.5,0-25.3c2.4-5.3,12.7-1.1,12.7-1.1l3.2-9.7
			c-5.7-3.1-10.4-3.1-12.7-3.1c-14.2,0.4-13.9,13-13.9,13s-0.2,11.2-0.1,20.1c-1.9-8.8-8.5-11.4-15.3-14.5c-7.8-3.6-7-4.6-6.9-5.4
			c2-4.5,14.1,0,14.1,0l3.3-10.3c-18-7.6-28.9,1.3-29.1,8.9c-0.2,7.6,1.6,10.7,10.4,15c8.8,4.3,12.2,5.4,12.3,9.9
			c0.1,4.5-4,4.8-5.3,4.8c-7.8,0.3-7.5-6.2-7.5-6.2s-7.2,0.8-10.6,1.1l-9.3-35.6h-12.9l-11.8,50.4h11.7l2.7-12.4h8.3l2.6,12.4h12.5
			l-1.5-5.7c4.5,7.1,12.6,6.8,15.7,6.8c3.7,0,14.6-1.4,16.7-10.7c0.4,7.1,7.9,10.5,14.4,10.7c6.6,0.2,13.5-2.8,13.5-2.8
			S277.6,210.8,277.1,207.9z M198.9,196.5l1.5-5.9l1.5,5.9H198.9z"/>
	</g>
</g>
</svg>
