<?xml version="1.0" encoding="utf-8"?>
<!-- Generator: Adobe Illustrator 22.0.0, SVG Export Plug-In . SVG Version: 6.00 Build 0)  -->
<svg version="1.1" id="Layer_1" xmlns="http://www.w3.org/2000/svg" xmlns:xlink="http://www.w3.org/1999/xlink" x="0px" y="0px"
	 viewBox="0 0 146.4 59.4" style="enable-background:new 0 0 146.4 59.4;" xml:space="preserve">
<style type="text/css">
	.st0{fill:#FFFFFF;}
</style>
<g>
	<path class="st0" d="M33.9,4.4c0,0.6-9,27.3-9,27.3l-9-27.3H5.1v50.4h10.8V39.6L21,54.8h7.8l5.1-15.3v15.3h10.8V4.4H33.9z"/>
	<path class="st0" d="M140,42.8c-14.3,5.5-15.9,0-15.9,0s0.2-18.5,0-25.3c2.4-5.3,12.7-1.1,12.7-1.1l3.2-9.7
		c-5.7-3.1-10.4-3.1-12.7-3.1c-14.2,0.4-13.9,13-13.9,13s-0.2,11.2-0.1,20.1c-1.9-8.8-8.5-11.4-15.3-14.5c-7.8-3.6-7-4.6-6.9-5.4
		c2-4.5,14.1,0,14.1,0l3.3-10.3c-18-7.6-28.9,1.3-29.1,8.9c-0.2,7.6,1.6,10.7,10.4,15c8.8,4.3,12.2,5.4,12.3,9.9
		c0.1,4.5-4,4.8-5.3,4.8c-7.8,0.3-7.5-6.2-7.5-6.2s-7.2,0.8-10.6,1.1L69.4,4.4H56.5L44.7,54.8h11.7l2.7-12.4h8.3L70,54.8h12.5
		L81,49.1c4.5,7.1,12.6,6.8,15.7,6.8c3.7,0,14.6-1.4,16.7-10.7c0.4,7.1,7.9,10.5,14.4,10.7c6.6,0.2,13.5-2.8,13.5-2.8
		S140.4,45.7,140,42.8z M61.7,31.4l1.5-5.9l1.5,5.9H61.7z"/>
</g>
</svg>
