<?xml version="1.0" encoding="utf-8"?>
<!-- Generator: Adobe Illustrator 22.0.0, SVG Export Plug-In . SVG Version: 6.00 Build 0)  -->
<svg version="1.1" id="Layer_1" xmlns="http://www.w3.org/2000/svg" xmlns:xlink="http://www.w3.org/1999/xlink" x="0px" y="0px"
	 viewBox="0 0 146.4 59.4" style="enable-background:new 0 0 146.4 59.4;" xml:space="preserve">
<g>
	<path d="M33.9,4.4c0,0.6-9,27.3-9,27.3l-9-27.3H5.1v50.4h10.8V39.6L21,54.8h7.8l5.1-15.3v15.3h10.8V4.4H33.9z"/>
	<path d="M61.7,31.4L61.7,31.4l1.5-5.9l1.5,5.9H61.7z M69.4,4.4H56.5L44.7,54.8h11.7l2.7-12.4h8.3L70,54.8h12.5L69.4,4.4z"/>
	<path d="M108.5,6.5l-3.3,10.3c0,0-12.1-4.5-14.1,0c-0.1,0.8-0.9,1.8,6.9,5.4c7.8,3.6,15.5,6.5,15.8,19.2
		c0.3,12.7-13,14.5-17.1,14.5c-4.1,0-16.7,0.5-18.6-15.8c3.1-0.3,11.2-1.2,11.2-1.2s-0.3,6.5,7.5,6.2c1.3,0,5.4-0.3,5.3-4.8
		c-0.1-4.5-3.5-5.6-12.3-9.9c-8.8-4.3-10.6-7.4-10.4-15C79.6,7.8,90.5-1.1,108.5,6.5"/>
	<path d="M140,6.7l-3.2,9.7c0,0-10.3-4.2-12.7,1.1c0.2,6.8,0,25.3,0,25.3s1.6,5.5,15.9,0c0.4,2.9,1.3,10.3,1.3,10.3s-6.9,3-13.5,2.8
		c-6.6-0.2-14.2-3.7-14.4-11.1c-0.3-7.4,0-28.2,0-28.2S113.1,4,127.3,3.6C129.6,3.6,134.3,3.6,140,6.7"/>
</g>
</svg>
