<?xml version="1.0" encoding="utf-8"?>
<!-- Generator: Adobe Illustrator 22.0.0, SVG Export Plug-In . SVG Version: 6.00 Build 0)  -->
<svg version="1.1" id="Layer_1" xmlns="http://www.w3.org/2000/svg" xmlns:xlink="http://www.w3.org/1999/xlink" x="0px" y="0px"
	 viewBox="0 0 299 139" style="enable-background:new 0 0 299 139;" xml:space="preserve">
<g>
	<path d="M66.6,7.7c0,1.2-19.1,57.7-19.1,57.7L28.4,7.7H5.6v106.5h22.8V81.9l10.9,32.3h16.5l10.9-32.3v32.3h22.8V7.7H66.6z"/>
	<path d="M119.7,88h17.4l5.5,26.2H169l-3.4-13.1c9.4,15.9,26.9,15.2,33.7,15.2c7.7,0,30.7-3,35.3-22.3c1.3,14.9,16.8,22,30.4,22.4
		c13.9,0.4,28.5-5.9,28.5-5.9s-2-15.5-2.8-21.7c-30.3,11.6-33.6,0-33.6,0s0.4-39,0-53.4c5.2-11.2,26.9-2.3,26.9-2.3l6.8-20.5
		C278.5,6,268.7,6,263.8,5.9c-30.1,0.9-29.3,27.3-29.3,27.3s-0.3,23.8-0.2,42.6c-4-18.7-18-24.1-32.3-30.7
		c-16.5-7.7-14.8-9.8-14.6-11.4c4.1-9.6,29.7,0,29.7,0L224,12c-37.9-16-61,2.8-61.4,18.9c-0.4,16,3.6,22.6,22.1,31.7
		c18.5,9.1,25.8,11.4,26,20.8c0.2,9.4-8.5,10.1-11.2,10.1c-16.4,0.5-15.8-13.2-15.8-13.2S168,82,160.9,82.7L141.4,7.7h-27.2
		L89.4,114.2H114L119.7,88z M128.4,52.2l3.1,12.5h-6.2L128.4,52.2z"/>
	<path d="M124.9,122.5c0,0,0.1,0,0.3,0c0.6,0,1.3,0,1.3-0.5c0-0.2-0.1-0.5-0.8-0.5h-4.4c-0.7,0-0.7,0.4-0.7,0.5c0,0.1,0,0.5,0.7,0.5
		c0.1,0,0.1,0,0.2,0c0.5,0,0.6,0,0.7,0c0,0.1,0.1,0.2,0.1,0.7v3h-5.3v-3.2c0-0.2,0-0.4,0-0.4c0.1,0,0.2,0,0.5,0c0.4,0,1,0,1-0.5
		c0-0.1-0.1-0.5-0.7-0.5c-0.2,0-0.3,0-0.4,0c-0.3,0-0.7,0-1.4,0c-1.2,0-2,0-2.3,0c-0.2,0-0.3,0-0.4,0c-0.6,0-0.6,0.5-0.6,0.5
		c0,0.3,0.2,0.5,0.4,0.5c0.1,0,0.3,0,0.8,0.1c0.2,0,0.3,0,0.3,0c0,0.1,0,0.3,0,0.6v8.1c0,0.3,0,0.5,0,0.6c-0.1,0-0.1,0-0.3,0l-0.6,0
		c-0.5,0-0.7,0.2-0.7,0.5c0,0.2,0.1,0.5,0.8,0.5h4.3c0.7,0,0.8-0.3,0.8-0.5c0-0.5-0.6-0.5-0.9-0.5c-0.4,0-0.6-0.1-0.7-0.1
		c0-0.1,0-0.2,0-0.5v-4h5.3v4.1c0,0.2,0,0.4,0,0.4c-0.1,0-0.1,0-0.3,0c-0.7,0-1.3,0.1-1.3,0.5c0,0.2,0.1,0.5,0.8,0.5h4.4
		c0.7,0,0.8-0.3,0.8-0.5l0-0.2l-0.1-0.1c-0.2-0.2-0.5-0.1-0.5-0.1c-0.5,0-0.7,0-0.8-0.1c0-0.1,0-0.3,0-0.6V123
		C124.9,122.7,124.9,122.5,124.9,122.5z"/>
	<path d="M138.3,123c-1.3-1.1-2.9-1.7-4.7-1.7c-2,0-3.6,0.5-4.9,1.6c-1.3,1.1-1.9,2.5-1.9,4.2c0,1.7,0.7,3.1,2,4.3
		c1.3,1.1,3,1.7,4.9,1.7c1.8,0,3.4-0.6,4.6-1.7c1.3-1.1,1.9-2.5,1.9-4.2C140.2,125.5,139.6,124.1,138.3,123z M131.2,122.9
		c0.5-0.4,1.3-0.7,2.2-0.7c1,0,1.8,0.3,2.4,0.9c0.9,1,1.4,2.4,1.4,4.2c0,1.5-0.3,2.7-1,3.6c-0.6,0.8-1.4,1.2-2.6,1.2
		c-1.3,0-2.2-0.4-2.9-1.2c-0.7-0.8-1-2.1-1-3.6C129.7,125.2,130.2,123.8,131.2,122.9z"/>
	<path d="M149.1,127.5c-0.6-0.5-1.5-1-2.8-1.5c-1.3-0.5-1.8-0.8-2-0.9c-0.5-0.3-0.7-0.8-0.7-1.3c0-0.5,0.1-0.8,0.5-1.1
		c0.3-0.3,0.8-0.4,1.4-0.4c0.6,0,1.1,0.2,1.6,0.5c0.5,0.4,0.8,0.8,0.9,1.3c0.1,0.6,0.5,0.6,0.7,0.6c0.2,0,0.4-0.1,0.4-0.2
		c0.1-0.1,0.1-0.3,0.1-0.4l0-0.3c-0.1-0.3-0.1-0.6-0.1-1.1c0-0.3,0-0.6,0-0.8c0-0.1,0-0.2,0-0.3c0-0.3-0.2-0.6-0.6-0.6
		c-0.3,0-0.5,0.2-0.6,0.4c0,0,0,0.1,0,0.1c-0.1,0-0.2,0-0.5-0.1c-0.8-0.3-1.5-0.4-2-0.4c-1.2,0-2.2,0.3-2.9,0.9
		c-0.8,0.6-1.2,1.4-1.2,2.4c0,0.8,0.3,1.4,0.9,2c0.5,0.5,1.4,1,2.8,1.5c1,0.4,1.7,0.8,2.1,1.1c0.4,0.3,0.5,0.7,0.5,1.2
		c0,0.5-0.2,0.9-0.5,1.2c-0.4,0.3-0.9,0.5-1.7,0.5c-1.7,0-2.7-0.8-3-2.5c-0.1-0.6-0.5-0.7-0.6-0.7c-0.4,0-0.6,0.2-0.6,0.6
		c0,0.1,0,0.2,0,0.3c0,0.5,0,0.7,0,0.8c0,0.5-0.1,1.1-0.1,1.6c0,0.1,0,0.2,0,0.3c0,0.3,0.2,0.6,0.6,0.6c0.4,0,0.6-0.2,0.6-0.5
		c0,0,0-0.1,0-0.1c0.1,0,0.2,0,0.4,0.1c1,0.4,1.9,0.5,2.7,0.5c1.3,0,2.4-0.3,3.4-1c1-0.7,1.5-1.6,1.5-2.6
		C150,128.8,149.7,128.1,149.1,127.5z"/>
	<path d="M158.8,122.1c-0.8-0.5-1.9-0.7-3.5-0.7h-4.4c-0.3,0-0.9,0-0.9,0.5c0,0.1,0,0.5,0.7,0.5h0.3c0.4,0,0.5,0,0.6,0
		c0,0,0.1,0,0.1,0.2l0,9.1c0,0-0.2,0.1-0.9,0.1c-0.2,0-0.8,0-0.8,0.5c0,0.5,0.7,0.5,1,0.5h4.6c0.6,0,0.7-0.5,0.7-0.5
		c0,0,0-0.5-0.6-0.5c-0.3,0-0.7,0-1.1-0.1c-0.1,0-0.1,0-0.1,0c0,0,0-0.1,0-0.3v-4c0.4,0,0.8,0.1,1.2,0.1c1.1,0,2.1-0.2,2.8-0.6
		c1.2-0.6,1.9-1.5,1.9-2.7C160.2,123.4,159.7,122.6,158.8,122.1z M154.3,122.7c0-0.1,0-0.2,0-0.2c0.1,0,0.3-0.1,0.8-0.1
		c1.5,0,2.2,0.6,2.2,2c0,0.9-0.3,1.4-0.9,1.7c-0.6,0.3-1.3,0.4-2.1,0.4V122.7z"/>
	<path d="M176.6,125.1c0.4,0,0.6-0.3,0.6-0.6l0-0.2c-0.1-1.1-0.2-2-0.3-2.5l0-0.4l-3.7,0.1c-1,0-1.8,0-2.2,0l-4.1,0h-1.2l0,0.3
		c-0.1-0.2-0.2-0.3-0.7-0.3l-0.8,0c-0.6,0-1,0-1.2,0h-2.7c-0.6,0-0.6,0.4-0.6,0.5c0,0.5,0.6,0.5,0.7,0.5c0.5,0,0.7,0.1,0.8,0.1
		c0,0.1,0,0.3,0,0.6v8.2c0,0.4,0,0.5,0,0.6c-0.1,0-0.3,0-0.7,0.1c-0.3,0-0.9,0-0.9,0.5c0,0.1,0,0.5,0.6,0.5c0.4,0,0.6,0,0.8,0
		c0.3,0,0.7,0,1,0c2.2,0,2.6,0,2.6,0l0.3,0c0.6,0,0.6-0.5,0.6-0.5c0-0.2-0.1-0.5-0.6-0.5c0,0,0,0,0,0c-0.6,0-0.9-0.1-1-0.1
		c0-0.1,0-0.3,0-0.7v-8.3c0-0.2,0-0.3,0-0.4c0.1,0,0.2,0,0.3,0c0.5,0,1,0,1.2-0.3c-0.1,0.6-0.1,1.1-0.1,1.4l0,0.4c0,0.1,0,0.3,0,0.4
		c0,0.5,0.3,0.7,0.6,0.7c0.2,0,0.6-0.1,0.7-0.8c0.1-0.9,0.5-1.4,1.2-1.6c0.1,0,0.6-0.1,2-0.1v8.9c0,0.3,0,0.4,0,0.4
		c0,0-0.2,0.1-0.5,0.1c-0.5,0-1.2,0-1.2,0.5c0,0.5,0.6,0.5,0.8,0.5c0.6,0,1.1,0,1.5,0c0.4,0,0.8,0,1.2,0c0.3,0,0.9,0,1.7,0
		c0.1,0,0.2,0,0.3,0c0.6,0,0.7-0.4,0.7-0.5c0-0.1,0-0.5-0.6-0.5c-0.8,0-1-0.1-1-0.1c0,0-0.1,0-0.1-0.3v-9c0.2,0,0.5,0,0.8,0
		c0.2,0,0.5,0,0.9,0.1c0.5,0.1,0.9,0.3,1.1,0.5c0.2,0.2,0.3,0.5,0.4,0.8l0.1,0.6C176.1,125,176.4,125.1,176.6,125.1z"/>
	<path d="M229.2,121.6c-0.2-0.2-0.4-0.3-2.3-0.2h-1.8c-0.7,0-0.8,0.3-0.8,0.5l0,0.2l0.1,0.1c0.2,0.2,0.5,0.2,0.7,0.2
		c0.1,0,0.3,0,0.8,0.1c-0.1,0.1-0.2,0.4-0.6,1l-1.2,1.8c-0.3,0.5-0.6,0.9-0.8,1.2l-1.5-2.2c-0.8-1.1-1.1-1.6-1.1-1.8
		c0.1,0,0.4-0.1,0.8-0.1c0.4,0,1.1,0,1.1-0.5c0-0.1-0.1-0.5-0.7-0.5c-0.1,0-0.3,0-0.3,0l-2.3,0c-0.2,0-0.6,0-1,0c-0.8,0-1.4,0-1.7,0
		c-0.1,0-0.1,0-0.2,0l-3.3,0c-1,0-1.8,0-2.2,0l-4.1,0h-1.2l0,0.3c-0.1-0.2-0.2-0.3-0.7-0.3l-0.8,0c-0.6,0-1,0-1.2,0h-2.7
		c-0.6,0-0.6,0.4-0.6,0.5c0,0.5,0.6,0.5,0.7,0.5c0.5,0,0.7,0.1,0.8,0.1c0,0.1,0,0.3,0,0.6v8.2c0,0.4,0,0.5,0,0.6
		c-0.1,0-0.3,0-0.7,0.1c-0.1,0-0.3,0-0.5,0.1c0-0.3,0-0.5,0-0.6l0-1.3c0-0.2-0.1-0.4-0.1-0.5c-0.1-0.1-0.2-0.2-0.5-0.2
		c-0.3,0-0.6,0.2-0.6,0.5c0,0.5-0.1,0.9-0.3,1.2c-0.2,0.3-0.5,0.4-1.1,0.5c-0.6,0.1-1.7,0.2-3.2,0.2c-0.4,0-0.8,0-1.1,0V123
		c0-0.3,0-0.5,0-0.5c0.1,0,0.2,0,0.4,0c0.6,0,0.7,0,0.8,0c0.2-0.1,0.4-0.2,0.4-0.5c0-0.1-0.1-0.5-0.7-0.5h-0.2c-0.2,0-0.5,0-0.9,0
		c-0.3,0-0.6,0-0.7,0c-1.3,0-2.2,0-2.6,0h-0.2c-0.5,0-0.6,0.3-0.6,0.5c0,0.1,0.1,0.5,0.8,0.5c0.5,0,0.7,0,0.8,0c0,0.1,0,0.2,0,0.4
		v8.7c0,0.1,0,0.2,0,0.3c-0.1,0-0.3,0-0.7,0.1c-0.1,0-0.2,0-0.3,0c-0.6,0-0.8-0.1-0.9-0.1c-0.1,0-0.1-0.1-0.2-0.3
		c-1.9-4-3.1-6.5-3.6-7.5c-0.6-1.3-1-2.1-1.2-2.5c-0.1-0.3-0.4-0.3-0.4-0.3c-0.1,0-0.4,0-0.5,0.4l-0.1,0.2c-0.1,0.2-0.2,0.3-0.2,0.4
		c-1.1,2.3-2.4,5.3-4.2,9.2c-0.1,0.2-0.2,0.3-0.3,0.3c-0.1,0-0.3,0.1-0.8,0.1c-0.3,0-1,0-1,0.5c0,0.1,0,0.5,0.7,0.5
		c0.1,0,0.2,0,0.3,0c0.4-0.1,0.8,0,1.2,0c0.8,0,1.5,0.1,2.2,0.1c0.2,0,0.9,0,0.9-0.5c0-0.5-0.6-0.5-0.9-0.5c-0.4,0-0.7,0-0.9,0
		c0.1-0.2,0.3-0.8,1-2.4h3.8c0.4,1,0.7,1.6,0.8,1.9l0.2,0.4c-0.2,0-0.6,0.1-1.3,0.1c-0.6,0-0.9,0.2-0.9,0.6c0,0.2,0.1,0.5,0.8,0.5
		c0.1,0,0.2,0,0.3,0l2.5-0.1l2.5,0.1c0.1,0,0.3,0,0.4,0c0.1,0,0.1,0,0.2,0l8,0c0.4,0,0.7,0,1,0c0.3,0,0.5,0,0.6,0h0.6l0-0.2
		c0.1,0,0.2,0.1,0.3,0.1c0.4,0,0.6,0,0.8,0c0.3,0,0.7,0,1,0c2.2,0,2.6,0,2.6,0l0.3,0c0.6,0,0.6-0.5,0.6-0.5c0-0.2-0.1-0.5-0.6-0.5
		c0,0,0,0,0,0c-0.6,0-0.9-0.1-1-0.1c0-0.1,0-0.3,0-0.7v-8.3c0-0.2,0-0.3,0-0.4c0.1,0,0.2,0,0.3,0c0.5,0,1,0,1.2-0.3
		c-0.1,0.6-0.1,1.1-0.1,1.4l0,0.4c0,0.1,0,0.3,0,0.4c0,0.5,0.3,0.7,0.6,0.7c0.2,0,0.6-0.1,0.7-0.8c0.1-0.9,0.5-1.4,1.2-1.6
		c0.1,0,0.6-0.1,2-0.1v8.9c0,0.3,0,0.4,0,0.4c0,0-0.2,0.1-0.5,0.1c-0.5,0-1.2,0-1.2,0.5c0,0.5,0.6,0.5,0.8,0.5c0.6,0,1.1,0,1.5,0
		c0.4,0,0.8,0,1.2,0c0.3,0,0.9,0,1.7,0c0.1,0,0.2,0,0.3,0c0.6,0,0.7-0.4,0.7-0.5c0-0.1,0-0.5-0.6-0.5c-0.8,0-1-0.1-1-0.1
		c0,0-0.1,0-0.1-0.3v-9c0.2,0,0.5,0,0.8,0c0.2,0,0.5,0,0.9,0.1c0.5,0.1,0.9,0.3,1.1,0.5c0.2,0.2,0.3,0.5,0.4,0.8l0.1,0.6
		c0.1,0.6,0.5,0.7,0.7,0.7c0.4,0,0.6-0.3,0.6-0.6l0-0.3c-0.1-0.7-0.2-1.4-0.2-1.9c0.1,0,0.1,0,0.2,0c0.4,0,0.6,0,0.7,0.1
		c0.3,0.3,0.5,0.6,0.7,0.9l2,3.1c0.6,0.9,0.9,1.4,1.1,1.7v3.1c0,0.3,0,0.4,0,0.4c-0.1,0-0.3,0.1-1.1,0.1c-0.5,0-0.8,0.2-0.8,0.5
		c0,0.1,0,0.5,0.7,0.5c0.1,0,0.2,0,0.3,0c0.5,0,1.1,0,1.9,0l3.1,0c0.6,0,0.7-0.4,0.7-0.5c0-0.5-0.6-0.5-0.9-0.5
		c-0.6,0-0.9-0.1-1-0.1c0,0,0-0.1,0-0.3v-2.9c0-0.6,0-0.8,0-0.8c0,0,0.1-0.2,0.4-0.7c0.4-0.6,0.8-1.2,1.3-2c1.3-2.1,1.6-2.5,1.7-2.6
		c0,0,0.2-0.2,1.1-0.2c0.6,0,0.7-0.3,0.7-0.5l0-0.2L229.2,121.6z M180.8,128.3c0.5-1.2,1-2.3,1.4-3.2l1.5,3.2H180.8z"/>
	<path d="M244.8,129.8h0.5c0.4,0,0.6-0.3,0.6-0.5c0-0.2-0.1-0.5-0.8-0.5h-2.2c-1.5,0-2,0-2.1,0h-0.4c-0.7,0-0.8,0.3-0.8,0.5
		c0,0.2,0.1,0.4,0.4,0.5c0.1,0,0.2,0,0.5,0c0.1,0,0.1,0,0.2,0c0.6,0,0.8,0,0.9,0c0,0,0.1,0.2,0.1,0.6c0,0.7-0.1,0.9-0.2,1
		c-0.3,0.4-1,0.6-1.9,0.6c-1.3,0-2.3-0.4-3.1-1.3c-0.8-0.9-1.1-2.1-1.1-3.5c0-1.6,0.4-2.8,1.1-3.7c0.7-0.9,1.7-1.3,3-1.3
		c1,0,1.8,0.3,2.4,0.8c0.6,0.5,0.9,1.2,1,2.1c0,0.3,0.3,0.6,0.6,0.6c0.1,0,0.4,0,0.5-0.4l0.1,0V125l-0.2,0l0.2,0c0,0,0-0.2,0-0.5v-1
		c0-0.2,0-0.7,0.1-1.2c0-0.2,0-0.3,0-0.4c0-0.2-0.2-0.5-0.5-0.5c-0.1,0-0.4,0.1-0.6,0.5c0,0.1-0.1,0.1-0.1,0.1c-0.1,0-0.3,0-0.6-0.1
		c-1.1-0.4-2.1-0.6-3-0.6c-2.1,0-3.8,0.6-5.1,1.7c-1.3,1.1-2,2.6-2,4.4c0,1.8,0.7,3.2,2,4.3c1.3,1,3.1,1.5,5.3,1.5
		c0.9,0,1.7-0.1,2.4-0.3c0.7-0.2,1.4-0.5,2.1-1l0.2-0.1V131c0-0.9,0-1.1,0-1.1C244.1,129.8,244.3,129.8,244.8,129.8z"/>
	<path d="M256,131.3c-0.6,0-0.8,0.4-0.8,0.7c0,0,0,0,0,0c-0.2,0-0.5-0.2-0.6-0.9c-0.2-1.6-0.6-2.7-1.1-3.3c-0.3-0.4-0.8-0.7-1.4-0.9
		c0.6-0.1,1.1-0.4,1.5-0.6c0.9-0.5,1.3-1.2,1.3-2.1c0-0.9-0.4-1.6-1.3-2.1c-0.8-0.5-1.8-0.7-3.1-0.7c-0.2,0-0.6,0-1.1,0
		c-0.5,0-0.8,0-1.1,0l-2.6,0c-0.1,0-0.2,0-0.2,0c-0.7,0-0.7,0.4-0.7,0.5c0,0.5,0.6,0.5,0.9,0.5c0.6,0,0.8,0.1,0.8,0c0,0,0,0.2,0,0.5
		v8.5c0,0.2,0,0.3,0,0.4c-0.1,0-0.3,0.1-0.7,0.1c-0.4,0-0.9,0-0.9,0.5c0,0.2,0.1,0.5,0.8,0.5h4.7c0.7,0,0.7-0.4,0.7-0.5
		c0-0.1,0-0.5-0.6-0.5c-0.5,0-0.8,0-0.9,0c-0.2,0-0.3-0.1-0.3,0v-4.4c0.8,0,1.4,0.2,1.7,0.4c0.4,0.2,0.6,0.6,0.6,1.1
		c0.1,1.1,0.3,1.8,0.3,2.1c0.1,0.3,0.3,0.7,0.6,1c0.7,0.8,1.6,1.1,2.7,1.1c1.5,0,1.8-0.6,1.8-1C256.9,131.7,256.7,131.3,256,131.3z
		 M251.3,125.8c-0.4,0.3-1.2,0.5-2.2,0.5v-3.5c0-0.1,0-0.2,0.1-0.2c0,0,0.2-0.1,0.7-0.1c1.5,0,2.1,0.6,2.1,1.8
		C252,125,251.8,125.5,251.3,125.8z"/>
	<path d="M268,123c-1.3-1.1-2.9-1.7-4.7-1.7c-2,0-3.6,0.5-4.9,1.6c-1.3,1.1-1.9,2.5-1.9,4.2c0,1.7,0.7,3.1,2,4.3
		c1.3,1.1,3,1.7,4.9,1.7c1.8,0,3.4-0.6,4.6-1.7c1.3-1.1,1.9-2.5,1.9-4.2C269.9,125.5,269.3,124.1,268,123z M261,122.9
		c0.5-0.4,1.3-0.7,2.2-0.7c1,0,1.8,0.3,2.4,0.9c0.9,1,1.4,2.4,1.4,4.2c0,1.5-0.3,2.7-1,3.6c-0.6,0.8-1.4,1.2-2.6,1.2
		c-1.3,0-2.2-0.4-2.9-1.2c-0.7-0.8-1-2.1-1-3.6C259.5,125.2,260,123.8,261,122.9z"/>
	<path d="M291.9,122.1c-0.8-0.5-1.9-0.7-3.5-0.7H284c-0.2,0-0.5,0-0.7,0.1c-0.1-0.1-0.3-0.1-0.6-0.1h-3.2c-0.6,0-0.7,0.4-0.7,0.5
		c0,0.2,0.1,0.5,0.8,0.5c0.6,0,0.7,0,0.7,0c0.1,0,0.1,0,0.1,0v3.7c0,2.6,0,3.2-0.1,3.3c-0.2,1.6-1.2,2.3-3.1,2.3
		c-1,0-1.8-0.2-2.3-0.6c-0.5-0.4-0.7-1.3-0.7-2.5v-5.5c0-0.4,0-0.6,0-0.7c0,0,0.1,0,0.2,0c0.5,0,0.8,0,0.8,0c0.3,0,0.5-0.2,0.5-0.5
		c0-0.1,0-0.5-0.7-0.5h-4.5c-0.6,0-0.7,0.4-0.7,0.5c0,0.2,0.1,0.5,0.7,0.5c0.4,0,0.6,0,0.7,0c0.1,0,0.2,0,0.2,0v6.2
		c0,1.4,0.3,2.4,0.9,3.1c0.9,0.9,2.3,1.4,4.4,1.4c1.7,0,3-0.4,3.8-1.1c0.8-0.8,1.2-2,1.2-3.6v-5.8c0-0.1,0-0.1,0-0.2
		c0,0,0.1,0,0.3,0h0.7c0.2,0,0.4,0,0.5-0.1c0.1,0.1,0.2,0.1,0.4,0.1h0.3c0.4,0,0.5,0,0.6,0c0,0,0.1,0,0.1,0.2l0,9.1
		c0,0-0.2,0.1-0.9,0.1c-0.2,0-0.8,0-0.8,0.5c0,0.5,0.7,0.5,1,0.5h4.6c0.6,0,0.7-0.5,0.7-0.5c0,0,0-0.5-0.6-0.5c-0.3,0-0.7,0-1.1-0.1
		c-0.1,0-0.1,0-0.1,0c0,0,0-0.1,0-0.3v-4c0.4,0,0.8,0.1,1.2,0.1c1.1,0,2.1-0.2,2.8-0.6c1.2-0.6,1.9-1.5,1.9-2.7
		C293.3,123.4,292.8,122.6,291.9,122.1z M287.5,122.7c0-0.1,0-0.2,0-0.2c0.1,0,0.3-0.1,0.8-0.1c1.5,0,2.2,0.6,2.2,2
		c0,0.9-0.3,1.4-0.9,1.7c-0.6,0.3-1.3,0.4-2.1,0.4V122.7z"/>
</g>
</svg>
